<svg width="197" height="30" viewBox="0 0 197 30" fill="none" xmlns="http://www.w3.org/2000/svg">
<path d="M51.1962 22.1168V8.98412H53.4878L58.4059 15.665H57.313L62.1254 8.98412H64.417V22.1168H62.002V11.7164L62.9363 11.9456L57.9476 18.5912H57.6656L52.8003 11.9456L53.5936 11.7164V22.1168H51.1962Z" fill="white"/>
<path d="M69.4687 22.3283C68.7989 22.3283 68.2172 22.2167 67.7236 21.9934C67.23 21.7701 66.8481 21.4528 66.5778 21.0415C66.3075 20.6184 66.1723 20.1307 66.1723 19.5784C66.1723 19.0496 66.2899 18.5795 66.5249 18.1682C66.7599 17.7451 67.1242 17.3926 67.6178 17.1105C68.1114 16.8285 68.7342 16.6287 69.4864 16.5112L72.6241 16V17.7627L69.9271 18.2211C69.4687 18.3033 69.1279 18.4502 68.9046 18.6618C68.6814 18.8733 68.5697 19.1495 68.5697 19.4903C68.5697 19.8193 68.6931 20.0837 68.9399 20.2835C69.1984 20.4715 69.5157 20.5655 69.8918 20.5655C70.3736 20.5655 70.7967 20.4657 71.161 20.2659C71.5371 20.0543 71.825 19.7664 72.0248 19.4021C72.2363 19.0378 72.3421 18.6382 72.3421 18.2034V15.7355C72.3421 15.3242 72.1775 14.9834 71.8485 14.7131C71.5312 14.4311 71.1081 14.2901 70.5793 14.2901C70.0857 14.2901 69.645 14.4252 69.2572 14.6955C68.8811 14.9541 68.605 15.3007 68.4287 15.7355L66.5425 14.8189C66.7306 14.3136 67.0244 13.8788 67.4239 13.5145C67.8352 13.1384 68.3171 12.8446 68.8694 12.6331C69.4217 12.4215 70.0211 12.3158 70.6674 12.3158C71.4548 12.3158 72.1481 12.4627 72.7475 12.7565C73.3468 13.0385 73.811 13.4381 74.1401 13.9551C74.4809 14.4605 74.6513 15.0539 74.6513 15.7355V22.1168H72.4654V20.4774L72.959 20.4422C72.7122 20.8535 72.4184 21.2001 72.0776 21.4822C71.7368 21.7525 71.349 21.964 70.9142 22.1168C70.4794 22.2578 69.9976 22.3283 69.4687 22.3283Z" fill="white"/>
<path d="M81.2278 22.3283C80.2759 22.3283 79.418 22.1109 78.6542 21.6761C77.902 21.2295 77.3086 20.6302 76.8738 19.8781C76.4389 19.1142 76.2215 18.2563 76.2215 17.3044C76.2215 16.3525 76.4389 15.5005 76.8738 14.7484C77.3086 13.9963 77.902 13.4028 78.6542 12.968C79.418 12.5332 80.2759 12.3158 81.2278 12.3158C81.9094 12.3158 82.544 12.4392 83.1316 12.6859C83.7192 12.921 84.2245 13.25 84.6476 13.6731C85.0824 14.0844 85.3938 14.578 85.5819 15.1538L83.5547 16.0352C83.3784 15.5534 83.0787 15.1656 82.6557 14.8718C82.2443 14.578 81.7684 14.4311 81.2278 14.4311C80.7225 14.4311 80.27 14.5545 79.8705 14.8013C79.4827 15.0481 79.1771 15.3889 78.9538 15.8237C78.7305 16.2585 78.6189 16.758 78.6189 17.322C78.6189 17.8861 78.7305 18.3856 78.9538 18.8204C79.1771 19.2552 79.4827 19.596 79.8705 19.8428C80.27 20.0896 80.7225 20.213 81.2278 20.213C81.7801 20.213 82.262 20.0661 82.6733 19.7723C83.0846 19.4785 83.3784 19.0848 83.5547 18.5912L85.5819 19.5079C85.3938 20.0485 85.0883 20.5362 84.6652 20.971C84.2422 21.3941 83.7368 21.729 83.1492 21.9758C82.5616 22.2108 81.9212 22.3283 81.2278 22.3283Z" fill="white"/>
<path d="M87.1578 22.1168V8.77259H89.467V14.4135L89.1497 14.0785C89.373 13.5027 89.7373 13.0679 90.2426 12.7741C90.7597 12.4685 91.359 12.3158 92.0406 12.3158C92.7457 12.3158 93.3686 12.4685 93.9092 12.7741C94.4615 13.0796 94.8905 13.5086 95.196 14.0609C95.5016 14.6015 95.6543 15.2302 95.6543 15.9471V22.1168H93.3451V16.4935C93.3451 16.0705 93.2628 15.7062 93.0983 15.4006C92.9338 15.0951 92.7046 14.86 92.4108 14.6955C92.1288 14.5192 91.7938 14.4311 91.406 14.4311C91.03 14.4311 90.6951 14.5192 90.4013 14.6955C90.1075 14.86 89.8783 15.0951 89.7138 15.4006C89.5493 15.7062 89.467 16.0705 89.467 16.4935V22.1168H87.1578Z" fill="white"/>
<path d="M97.4307 22.1168V12.5273H99.74V22.1168H97.4307ZM97.4307 11.452V8.98412H99.74V11.452H97.4307Z" fill="white"/>
<path d="M101.696 22.1168V12.5273H103.864V14.4135L103.688 14.0785C103.911 13.5027 104.275 13.0679 104.781 12.7741C105.298 12.4685 105.897 12.3158 106.579 12.3158C107.284 12.3158 107.907 12.4685 108.447 12.7741C109 13.0796 109.429 13.5086 109.734 14.0609C110.04 14.6015 110.192 15.2302 110.192 15.9471V22.1168H107.883V16.4935C107.883 16.0705 107.801 15.7062 107.636 15.4006C107.472 15.0951 107.243 14.86 106.949 14.6955C106.667 14.5192 106.332 14.4311 105.944 14.4311C105.568 14.4311 105.233 14.5192 104.939 14.6955C104.646 14.86 104.416 15.0951 104.252 15.4006C104.087 15.7062 104.005 16.0705 104.005 16.4935V22.1168H101.696Z" fill="white"/>
<path d="M116.517 22.3283C115.53 22.3283 114.666 22.105 113.925 21.6585C113.185 21.2119 112.609 20.6067 112.198 19.8428C111.787 19.0789 111.581 18.2328 111.581 17.3044C111.581 16.3408 111.787 15.4888 112.198 14.7484C112.621 13.9963 113.191 13.4028 113.908 12.968C114.636 12.5332 115.447 12.3158 116.34 12.3158C117.093 12.3158 117.751 12.4392 118.315 12.6859C118.891 12.9327 119.378 13.2735 119.778 13.7084C120.177 14.1432 120.483 14.6426 120.695 15.2067C120.906 15.7591 121.012 16.3584 121.012 17.0047C121.012 17.1693 121 17.3397 120.977 17.5159C120.965 17.6922 120.935 17.845 120.888 17.9743H113.485V16.2115H119.584L118.491 17.04C118.597 16.4994 118.567 16.0176 118.403 15.5945C118.25 15.1715 117.992 14.8365 117.627 14.5897C117.275 14.343 116.846 14.2196 116.34 14.2196C115.859 14.2196 115.43 14.343 115.054 14.5897C114.678 14.8248 114.39 15.1773 114.19 15.6474C114.002 16.1057 113.931 16.6639 113.978 17.322C113.931 17.9096 114.008 18.4326 114.208 18.8909C114.419 19.3375 114.725 19.6842 115.124 19.9309C115.535 20.1777 116.006 20.3011 116.534 20.3011C117.063 20.3011 117.51 20.1895 117.874 19.9662C118.25 19.7429 118.544 19.4432 118.755 19.0672L120.624 19.9838C120.436 20.4422 120.142 20.8476 119.743 21.2001C119.343 21.5527 118.867 21.8289 118.315 22.0287C117.774 22.2284 117.175 22.3283 116.517 22.3283Z" fill="white"/>
<path d="M125.737 22.1168V8.98412H128.134V20.0015H133.757V22.1168H125.737Z" fill="white"/>
<path d="M139.486 22.3283C138.499 22.3283 137.635 22.105 136.895 21.6585C136.154 21.2119 135.578 20.6067 135.167 19.8428C134.756 19.0789 134.55 18.2328 134.55 17.3044C134.55 16.3408 134.756 15.4888 135.167 14.7484C135.59 13.9963 136.16 13.4028 136.877 12.968C137.606 12.5332 138.416 12.3158 139.31 12.3158C140.062 12.3158 140.72 12.4392 141.284 12.6859C141.86 12.9327 142.347 13.2735 142.747 13.7084C143.147 14.1432 143.452 14.6426 143.664 15.2067C143.875 15.7591 143.981 16.3584 143.981 17.0047C143.981 17.1693 143.969 17.3397 143.946 17.5159C143.934 17.6922 143.905 17.845 143.858 17.9743H136.454V16.2115H142.553L141.46 17.04C141.566 16.4994 141.537 16.0176 141.372 15.5945C141.219 15.1715 140.961 14.8365 140.596 14.5897C140.244 14.343 139.815 14.2196 139.31 14.2196C138.828 14.2196 138.399 14.343 138.023 14.5897C137.647 14.8248 137.359 15.1773 137.159 15.6474C136.971 16.1057 136.9 16.6639 136.947 17.322C136.9 17.9096 136.977 18.4326 137.177 18.8909C137.388 19.3375 137.694 19.6842 138.093 19.9309C138.505 20.1777 138.975 20.3011 139.503 20.3011C140.032 20.3011 140.479 20.1895 140.843 19.9662C141.219 19.7429 141.513 19.4432 141.725 19.0672L143.593 19.9838C143.405 20.4422 143.111 20.8476 142.712 21.2001C142.312 21.5527 141.836 21.8289 141.284 22.0287C140.743 22.2284 140.144 22.3283 139.486 22.3283Z" fill="white"/>
<path d="M148.429 22.3283C147.759 22.3283 147.178 22.2167 146.684 21.9934C146.191 21.7701 145.809 21.4528 145.538 21.0415C145.268 20.6184 145.133 20.1307 145.133 19.5784C145.133 19.0496 145.25 18.5795 145.485 18.1682C145.721 17.7451 146.085 17.3926 146.578 17.1105C147.072 16.8285 147.695 16.6287 148.447 16.5112L151.585 16V17.7627L148.888 18.2211C148.429 18.3033 148.088 18.4502 147.865 18.6618C147.642 18.8733 147.53 19.1495 147.53 19.4903C147.53 19.8193 147.654 20.0837 147.9 20.2835C148.159 20.4715 148.476 20.5655 148.852 20.5655C149.334 20.5655 149.757 20.4657 150.122 20.2659C150.498 20.0543 150.786 19.7664 150.985 19.4021C151.197 19.0378 151.303 18.6382 151.303 18.2034V15.7355C151.303 15.3242 151.138 14.9834 150.809 14.7131C150.492 14.4311 150.069 14.2901 149.54 14.2901C149.046 14.2901 148.606 14.4252 148.218 14.6955C147.842 14.9541 147.566 15.3007 147.389 15.7355L145.503 14.8189C145.691 14.3136 145.985 13.8788 146.384 13.5145C146.796 13.1384 147.278 12.8446 147.83 12.6331C148.382 12.4215 148.982 12.3158 149.628 12.3158C150.415 12.3158 151.109 12.4627 151.708 12.7565C152.307 13.0385 152.772 13.4381 153.101 13.9551C153.441 14.4605 153.612 15.0539 153.612 15.7355V22.1168H151.426V20.4774L151.92 20.4422C151.673 20.8535 151.379 21.2001 151.038 21.4822C150.697 21.7525 150.31 21.964 149.875 22.1168C149.44 22.2578 148.958 22.3283 148.429 22.3283Z" fill="white"/>
<path d="M155.57 22.1168V12.5273H157.738V14.6603L157.562 14.343C157.785 13.6261 158.132 13.1266 158.602 12.8446C159.084 12.5626 159.66 12.4215 160.329 12.4215H160.893V14.4663H160.065C159.407 14.4663 158.878 14.672 158.478 15.0833C158.079 15.4829 157.879 16.047 157.879 16.7756V22.1168H155.57Z" fill="white"/>
<path d="M161.987 22.1168V12.5273H164.155V14.4135L163.979 14.0785C164.202 13.5027 164.566 13.0679 165.072 12.7741C165.589 12.4685 166.188 12.3158 166.87 12.3158C167.575 12.3158 168.198 12.4685 168.738 12.7741C169.291 13.0796 169.72 13.5086 170.025 14.0609C170.331 14.6015 170.483 15.2302 170.483 15.9471V22.1168H168.174V16.4935C168.174 16.0705 168.092 15.7062 167.927 15.4006C167.763 15.0951 167.534 14.86 167.24 14.6955C166.958 14.5192 166.623 14.4311 166.235 14.4311C165.859 14.4311 165.524 14.5192 165.23 14.6955C164.937 14.86 164.707 15.0951 164.543 15.4006C164.378 15.7062 164.296 16.0705 164.296 16.4935V22.1168H161.987Z" fill="white"/>
<path d="M172.26 22.1168V12.5273H174.569V22.1168H172.26ZM172.26 11.452V8.98412H174.569V11.452H172.26Z" fill="white"/>
<path d="M176.525 22.1168V12.5273H178.693V14.4135L178.517 14.0785C178.74 13.5027 179.104 13.0679 179.61 12.7741C180.127 12.4685 180.726 12.3158 181.408 12.3158C182.113 12.3158 182.736 12.4685 183.276 12.7741C183.829 13.0796 184.258 13.5086 184.563 14.0609C184.869 14.6015 185.021 15.2302 185.021 15.9471V22.1168H182.712V16.4935C182.712 16.0705 182.63 15.7062 182.465 15.4006C182.301 15.0951 182.072 14.86 181.778 14.6955C181.496 14.5192 181.161 14.4311 180.773 14.4311C180.397 14.4311 180.062 14.5192 179.768 14.6955C179.475 14.86 179.245 15.0951 179.081 15.4006C178.916 15.7062 178.834 16.0705 178.834 16.4935V22.1168H176.525Z" fill="white"/>
<path d="M191.452 25.9949C190.735 25.9949 190.071 25.8774 189.46 25.6423C188.849 25.4073 188.32 25.0782 187.873 24.6552C187.438 24.2439 187.121 23.7562 186.921 23.1921L189.072 22.3812C189.213 22.8278 189.489 23.1862 189.9 23.4565C190.323 23.7385 190.84 23.8796 191.452 23.8796C191.922 23.8796 192.333 23.7914 192.686 23.6151C193.05 23.4389 193.332 23.1803 193.532 22.8395C193.731 22.5105 193.831 22.1109 193.831 21.6408V19.455L194.272 19.9838C193.943 20.5597 193.502 20.9945 192.95 21.2883C192.398 21.5821 191.769 21.729 191.064 21.729C190.171 21.729 189.371 21.5233 188.666 21.112C187.961 20.7007 187.409 20.1366 187.009 19.4197C186.61 18.7029 186.41 17.8979 186.41 17.0047C186.41 16.0999 186.61 15.2949 187.009 14.5897C187.409 13.8846 187.955 13.3323 188.649 12.9327C189.342 12.5214 190.129 12.3158 191.011 12.3158C191.728 12.3158 192.356 12.4685 192.897 12.7741C193.449 13.0679 193.908 13.4968 194.272 14.0609L193.955 14.6426V12.5273H196.141V21.6408C196.141 22.4752 195.935 23.2215 195.524 23.8796C195.124 24.5377 194.572 25.0547 193.867 25.4308C193.173 25.8069 192.368 25.9949 191.452 25.9949ZM191.346 19.596C191.839 19.596 192.268 19.4903 192.633 19.2787C193.009 19.0554 193.302 18.7499 193.514 18.3621C193.726 17.9743 193.831 17.5277 193.831 17.0224C193.831 16.5288 193.72 16.0881 193.496 15.7003C193.285 15.3007 192.991 14.9893 192.615 14.766C192.251 14.5427 191.828 14.4311 191.346 14.4311C190.864 14.4311 190.429 14.5427 190.041 14.766C189.654 14.9893 189.348 15.3007 189.125 15.7003C188.913 16.0881 188.807 16.5288 188.807 17.0224C188.807 17.5159 188.913 17.9566 189.125 18.3445C189.348 18.7323 189.648 19.0378 190.024 19.2611C190.412 19.4844 190.852 19.596 191.346 19.596Z" fill="white"/>
<path d="M34.8222 0.360329C33.6185 -0.230071 32.1832 -0.0875595 31.1195 0.733571L18.3949 10.5553L5.66938 0.733571C4.60617 -0.0875595 3.17187 -0.229549 1.9667 0.360329C0.763088 0.952295 0 2.17799 0 3.51905V26.481C0 27.8225 0.763088 29.0477 1.9667 29.6397C3.1703 30.2301 4.60565 30.0876 5.66938 29.2664L15.8813 21.3845L10.1211 16.939L7.03793 19.3189V10.6795L31.119 29.2664C31.7474 29.7514 32.5052 29.9999 33.2694 29.9999C33.7986 29.9999 34.3289 29.8808 34.8216 29.6397C36.0252 29.0477 36.7883 27.822 36.7883 26.481V3.51905C36.7883 2.17747 36.0252 0.952295 34.8216 0.360329H34.8222ZM29.7515 19.3199L24.1552 15.0003L29.7515 10.6806V19.3199Z" fill="url(#paint0_linear_207_10)"/>
<defs>
<linearGradient id="paint0_linear_207_10" x1="18.3942" y1="0" x2="18.3942" y2="30" gradientUnits="userSpaceOnUse">
<stop stop-color="#C328FA"/>
<stop offset="1" stop-color="#3525EF"/>
</linearGradient>
</defs>
</svg>
